<svg width="123" height="123" viewBox="0 0 123 123" fill="none" xmlns="http://www.w3.org/2000/svg">
<circle cx="55.5556" cy="66.6666" r="55" stroke="white" stroke-opacity="0.5" stroke-width="1.11111"/>
<circle cx="66.6666" cy="55.5556" r="55" stroke="white" stroke-opacity="0.5" stroke-width="1.11111"/>
<path d="M24.5853 38.3401L20.925 27.5259L9.79808 25.5639L20.5393 21.554L22.7669 10.1884L26.4272 21.0026L37.5542 22.9646L26.813 26.9745L24.5853 38.3401Z" fill="#E09B6B"/>
<path d="M24.4795 36.7014L21.3243 27.3795L21.2469 27.1509L21.0093 27.109L11.3972 25.4141L20.6761 21.9502L20.9054 21.8645L20.9525 21.6243L22.8728 11.827L26.028 21.149L26.1054 21.3776L26.343 21.4195L35.955 23.1144L26.6762 26.5783L26.4468 26.6639L26.3997 26.9042L24.4795 36.7014Z" stroke="white" stroke-opacity="0.5" stroke-width="0.844444"/>
</svg>
